<svg xmlns="http://www.w3.org/2000/svg" data-name="Слой 1" viewBox="0 0 100 125" x="0px" y="0px"><title>grape</title><g><path d="M30.77388,38.87681a0.28531,0.28531,0,0,0,.2134-0.35782,0.40905,0.40905,0,0,0-.45989-0.25336,3.48788,3.48788,0,0,0-.53727.16185c-0.91018.33482-1.81808,0.67571-2.728,1.01133a1.72428,1.72428,0,0,1-1.17394.21524,9.92715,9.92715,0,0,1-1.86688-.61183,1.04445,1.04445,0,0,0-.52429-0.1836,2.085,2.085,0,0,0-2.38827,1.98848,1.14933,1.14933,0,0,0-.06123,1.0658c0.31109,0.255.648-.20418,0.982-0.32725,0.14588-.05376.27713-0.14588,0.41946-0.2109a1.02347,1.02347,0,0,1,1.5756.46972,10.41767,10.41767,0,0,1,1.15549,2.55964c0.19771,0.70671.14016,1.02083-.6474,1.106-0.341.03688-.42527,0.19428-0.28972,0.50831,0.08576,0.1987.20654,0.49112-.01229,0.60381-0.47659.24541-.19434,0.48932-0.06276,0.74228,0.101,0.1942.29712,0.484,0.12215,0.59175-0.54494.33554-.2458,0.91529-0.45077,1.32538a0.92528,0.92528,0,0,1-.20444.02477,1.28158,1.28158,0,0,1-.63608-0.37711c-0.31238-.25609-0.49833-0.15088-0.61506.20667a2.19044,2.19044,0,0,0-.16711.82269,1.97034,1.97034,0,0,1-.18455.8187,0.34331,0.34331,0,0,1-.5834.1868c-0.66932-.394-0.68483-0.39525-1.174.19389-0.23824.28694-.41231,0.62645-0.642,0.92144-0.242.31071-.46506,0.25957-0.607-0.11886a1.06254,1.06254,0,0,1-.068-0.27324c-0.03625-.4027.10683-0.89023-0.55539-0.9514a0.29077,0.29077,0,0,1-.12061-0.40694,2.26345,2.26345,0,0,0,.02631-1.20567c0.07487-.66281-0.57536-1.04363-0.47434-1.66449a0.45522,0.45522,0,0,0-.183-0.2037c-0.6704-.60193-0.67137-0.6018-0.09224-1.21426a0.39647,0.39647,0,0,0,.19146-0.41976,3.31313,3.31313,0,0,0-.27031-0.20722c-0.418-.26406-0.58848-0.56159-0.16491-0.97078,0.085-.08216.18953-0.25472,0.06515-0.31055-0.36547-.164-0.1259-0.74771-0.65515-0.82217-0.43781-.06159-0.3691-0.4231-0.21869-0.73939A2.49707,2.49707,0,0,1,19.772,41.47679a2.37943,2.37943,0,0,0,.98744.43249,5.39875,5.39875,0,0,1,.11942-2.3712,16.9387,16.9387,0,0,1-2.12037.3879c-1.70944.0925-3.082,1.0383-4.47506,1.82092a17.72907,17.72907,0,0,0-3.14869,2.94069,2.48788,2.48788,0,0,0-.47574.8026A15.19658,15.19658,0,0,0,9.5722,49.74413a1.30336,1.30336,0,0,0,.29521,1.21126,1.16905,1.16905,0,0,1,.22593.882,0.48006,0.48006,0,0,1-.74516.39058,1.59268,1.59268,0,0,1-1.0395-1.92937c0.02045-.15495.08055-0.30579,0.09148-0.46071a11.73079,11.73079,0,0,1,1.76924-5.55379,11.61447,11.61447,0,0,1,1.81427-1.88372,9.19252,9.19252,0,0,1,2.1144-1.6745,16.49272,16.49272,0,0,1,5.448-1.9307c1.188-.17847,2.36594-0.42474,3.56523-0.64363a1.798,1.798,0,0,0-.76836-0.97576,0.941,0.941,0,0,1-.44461-0.45771,3.78759,3.78759,0,0,0-.96231-1.2569,2.44946,2.44946,0,0,0-2.21565-.76664,1.29464,1.29464,0,0,0-.98744.64468,1.00084,1.00084,0,0,0,.55406,1.38054,1.65855,1.65855,0,0,0,.81426.16546c0.26544-.03894.11866-0.37346,0.19183-0.56619a0.36737,0.36737,0,0,1,.31755-0.2979,0.37288,0.37288,0,0,1,.37482.3473,0.89688,0.89688,0,0,1-.89922,1.14818,2.33208,2.33208,0,0,1-1.47757-.52978,1.56569,1.56569,0,0,1-.09461-2.39062,2.70009,2.70009,0,0,1,3.51271.189,4.3538,4.3538,0,0,0,.82249.77528,3.62023,3.62023,0,0,1,1.06932-1.7958,2.32937,2.32937,0,0,1,3.73061.24832,1.42879,1.42879,0,0,1-.55758,2.25289,2.59334,2.59334,0,0,1-1.83793-.017c-0.17619-.07031-0.37447-0.13858-0.283-0.38692a0.36558,0.36558,0,0,1,.46566-0.21583,4.62945,4.62945,0,0,0,.72588.17269,0.89671,0.89671,0,0,0,1.08329-.51455,0.95986,0.95986,0,0,0-.3974-1.14392,1.99428,1.99428,0,0,0-2.439-.04579,1.73494,1.73494,0,0,0-.65816,2.22665,4.08528,4.08528,0,0,0,.51092.89185,1.41787,1.41787,0,0,0,1.60939.635,18.29667,18.29667,0,0,1,4.76648-.37129c0.657,0.02772,1.26882-.30984,1.93256-0.22254a0.24459,0.24459,0,0,0,.28141-0.191c0.16748-.66175.62657-0.49587,1.04318-0.34571a2.0956,2.0956,0,0,0,1.6921.19125,0.6298,0.6298,0,0,1,.53506.11987,3.72214,3.72214,0,0,0,2.28163.29759,16.08916,16.08916,0,0,1,2.242-.07282,0.53971,0.53971,0,0,0,.60026-0.13436,3.73028,3.73028,0,0,1,1.44775-1.00577,1.98423,1.98423,0,0,1,2.85285.578,3.86,3.86,0,0,0,1.51223,1.35827c2.40008,0.9199,4.90764,1.49912,7.33559,2.32906a1.38472,1.38472,0,0,0,1.34085-.15591,2.40736,2.40736,0,0,1,2.6621.00244A9.42517,9.42517,0,0,1,60.19153,42.258a6.76394,6.76394,0,0,0,2.02212,1.776,3.39172,3.39172,0,0,0,.36947-0.88143A0.47,0.47,0,0,1,63.024,42.74a0.5231,0.5231,0,0,1,.43545.43733,1.03957,1.03957,0,0,0,.37742.69168c0.31008-.35247.29374-0.979,0.82237-0.9846a1.11283,1.11283,0,0,1,.63316.75095,0.61756,0.61756,0,0,0,.18751.10118c0.22232-.20408.44018-0.43034,0.68549-0.62135,0.21292-.1658.45033-0.4689,0.73119-0.27846a0.7019,0.7019,0,0,1,.07616.86226,1.69832,1.69832,0,0,1-.1808.32865,0.34619,0.34619,0,0,0,.01084.50014,0.60993,0.60993,0,0,1,.0195.84634,0.92646,0.92646,0,0,0-.27091.76023,1.89149,1.89149,0,0,1,1.09314.19508,1.18853,1.18853,0,0,0,.81516.17486,3.39206,3.39206,0,0,1,3.43007,1.24044,2.86663,2.86663,0,0,0,2.2599,1.0838c0.40622,0.0144.81171,0.05223,1.218,0.062a1.30994,1.30994,0,0,0,1.16955-.46576,4.68954,4.68954,0,0,1,.6415-0.548c1.223-1.073,2.18569-1.11761,3.41036-.06746a0.88077,0.88077,0,0,0,1.0171.19213c0.63555-.26142,1.25279-0.57256,1.90017-0.79856a3.20074,3.20074,0,0,0,1.50024-1.07294,1.51574,1.51574,0,0,1,1.572-.73708,0.53057,0.53057,0,0,0,.48615-0.21468,4.61277,4.61277,0,0,1,.80627-0.64093A6.49508,6.49508,0,0,0,90.94929,40.141a4.20237,4.20237,0,0,0-.47735-3.344,6.01983,6.01983,0,0,0-1.57419-1.72753A4.22713,4.22713,0,0,0,84.67551,34.28a3.16638,3.16638,0,0,0-2.02581,3.83989,1.81561,1.81561,0,0,0,.63525,1.01263,1.63876,1.63876,0,0,0,1.61116.13516c0.56612-.20735.05633-0.58944,0.15241-0.88237a0.38208,0.38208,0,0,1,.61051-0.25812,1.04554,1.04554,0,0,1,.182,1.553,2.353,2.353,0,0,1-3.38107-.393,3.55161,3.55161,0,0,1,.26932-4.35091,3.85317,3.85317,0,0,1,2.49432-1.5597,5.93094,5.93094,0,0,1,6.37962,6.9267A6.88825,6.88825,0,0,1,88.599,44.99455a2.46479,2.46479,0,0,0-.86577.92938,1.85027,1.85027,0,0,0,2.64117-.05177c0.16665-.12192.30346-0.23657,0.48137-0.06744a0.33071,0.33071,0,0,1,.00556.5,2.30845,2.30845,0,0,1-.70707.59827,2.84532,2.84532,0,0,1-2.69261-.18379,0.75682,0.75682,0,0,0-.86125-0.12779,5.81218,5.81218,0,0,1-1.17392.55545,1.32231,1.32231,0,0,0-.84408.93407c-0.06021.27416-.13966,0.54452-0.21968,0.81385a1.56354,1.56354,0,0,1-2.13221,1.06587,2.51347,2.51347,0,0,1-1.11072-.67085,0.86413,0.86413,0,0,0-1.016-.25838c-0.204.0674-.434,0.05218-0.64292,0.10882-1.29842.35207-2.77485-.03463-3.92553,0.953a1.556,1.556,0,0,1-.53814.14958,3.83686,3.83686,0,0,1-1.46123-.13731,4.91761,4.91761,0,0,0,1.94541,1.80274c0.21118,0.14607.34624-.006,0.42513-0.20146a2.34786,2.34786,0,0,1,2.31023-1.58373,0.79249,0.79249,0,0,0,.42143-0.19538c0.799-.63081,1.38466.33666,2.10581,0.27833a0.32609,0.32609,0,0,1,.04774.16732,0.31281,0.31281,0,0,0,.32072.37338c0.51248,0.019.31318,0.39877,0.32575,0.7015,0.36662-.0515.70472-0.1106,1.04538-0.14169a0.38037,0.38037,0,0,1,.39014.209,0.31234,0.31234,0,0,1-.1259.40593c-0.165.14411-.35,0.26568-0.51264,0.41223a1.36687,1.36687,0,0,0-.67068.71306c0.06111,0.02165.09045,0.03282,0.12029,0.04248,0.41514,0.13451,1.18129-.22316,1.01159.73724-0.02486.14077,0.1726,0.14905,0.29315,0.1645a0.63742,0.63742,0,0,1,.55859.29769,5.09113,5.09113,0,0,1-.618.78022c0.56357,0.39917.5924,0.42851,0.10442,0.908-0.28614.28117-.253,0.45772,0.00494,0.68061a1.96993,1.96993,0,0,1,.74325.94338c0.09688,0.36682-.0938.57412-0.45086,0.45484-0.38364-.12816-0.74831-0.31333-1.12055-0.47523a0.41794,0.41794,0,0,0-.33041-0.06908c-0.03106.55134-.51344,0.45329-0.81544,0.63-0.52183.30532-.50189,0.33034-0.77006-0.18971a0.63786,0.63786,0,0,0-.30877-0.4458c-0.6015.54081-.62962,0.54133-0.8654-0.19134a1.285,1.285,0,0,0-.59918-0.864c-0.12707.63983-.72993,0.96147-0.88045,1.56819a0.39729,0.39729,0,0,1-.31.29643c-0.39184-.45769-1.11375.05822-1.45105-0.51793-0.09541-.163-0.20695-0.146-0.36078.00405-0.43974.42893-.58106,0.39914-0.78419-0.13961a7.81188,7.81188,0,0,1-.34247-2.12182c-0.096-1.10553-.14572-2.18611.92553-2.94526-0.28961-.24475-0.50577-0.42306-0.71718-0.60687a5.42187,5.42187,0,0,1-1.93812-2.2286,1.20715,1.20715,0,0,0-.80273-0.72228A14.877,14.877,0,0,1,68.5395,47.518a3.98731,3.98731,0,0,0-1.28805-.55669,0.64742,0.64742,0,0,0-.9326.58238c0.80471,0.37839.80482,0.3785,0.15629,0.99855a0.40241,0.40241,0,0,0-.18577.32385,1.337,1.337,0,0,1,.7093.456c-0.69887.83384-1.91621,1.23919-2.43163,2.39975a0.808,0.808,0,0,0,.57451-0.28142,6.86183,6.86183,0,0,0,1.40658-1.004,8.68262,8.68262,0,0,1,4.13716-.153c0.20309,0.04973.38387,0.11548,0.36094,0.3405-0.03552.34869,0.14807,0.422,0.43416,0.45794,0.21175,0.02661.533,0.09477,0.44951,0.36044-0.23008.73186,0.2617,0.72644,0.72347,0.83284,0.38828,0.08947.63757,0.31244,0.33266,0.73759-0.1094.1526-.13876,0.288,0.034,0.38637,0.53378,0.304.32076,0.566-.028,0.83764-0.13238.10314-.377,0.12255-0.32439,0.37168a0.56585,0.56585,0,0,0,.40733.22525,3.83607,3.83607,0,0,1,.44429.15329c0.578,0.26515.65786,0.63758,0.10122,0.916-0.5582.27916-.49284,1.11071-1.20735,1.18537a0.36294,0.36294,0,0,0-.11482.33069c-0.13525.79465-.25437,0.89563-1.02762,0.65929-1.2552-.38362-2.49556-0.81575-3.74164-1.229a0.57728,0.57728,0,0,0-.59162-0.06051,2.94142,2.94142,0,0,0,1.3825,1.0028,9.47493,9.47493,0,0,1,1.29922.74681c0.16906,0.08881.38389,0.24,0.27566,0.42405-0.23211.39471,0.09006,0.49289,0.28832,0.65164a0.37056,0.37056,0,0,1,.0525.57008c-0.33974.548-.33418,0.54711,0.20876,0.83693a1.24623,1.24623,0,0,1,.37884.26584c0.24309,0.29231.29372,0.56628-.16943,0.69926-0.12307.03535-.24318,0.06727-0.179,0.2893a5.42471,5.42471,0,0,1,.51009.33389c0.43547,0.35263.40282,0.52384-.14134,0.761a0.57141,0.57141,0,0,0-.32655.16364,1.05733,1.05733,0,0,0,.40843.47955c0.62553,0.58705.59,0.75993-.21471,1.171a0.50662,0.50662,0,0,0-.11586.15228,2.346,2.346,0,0,0,.0765.25606c0.39529,0.94432.3892,0.95608-.59576,1.10563a0.19569,0.19569,0,0,0-.214.16933c0.11434,0.25456.25843,0.52963,0.36138,0.81932a0.33585,0.33585,0,0,1-.25228.494c-0.75534.25594-.74856,0.27332-0.48077,0.97464a2.115,2.115,0,0,1,.14963.44288,0.449,0.449,0,0,1-.53313.56486,0.45761,0.45761,0,0,0-.4414-0.01363,1.42034,1.42034,0,0,0,.08953.62089,0.51322,0.51322,0,0,1-.05089.52339,0.50385,0.50385,0,0,1-.60964.00811,0.90412,0.90412,0,0,0-.74644-0.30043,5.761,5.761,0,0,0-.09086,1.30485,0.73689,0.73689,0,0,1-.48287.73328,0.54259,0.54259,0,0,1-.63874-0.53769c-0.251-.9044-1.30641-1.13559-1.60856-1.9894a0.28008,0.28008,0,0,0-.40873-0.08678,0.61455,0.61455,0,0,1-.82729-0.39886c-0.1514-.23678-0.2801-0.48853-0.41162-0.73743-0.12966-.24533-0.25869-0.39759-0.58266-0.23526a0.44733,0.44733,0,0,1-.64136-0.35419c-0.10669-.29316-0.17081-0.60166-0.2571-0.90243-0.05615-.19577-0.14871-0.3523-0.39391-0.27878-0.48964.14683-.59815-0.19009-0.67936-0.54242-0.07028-.30494-0.11163-0.61644-0.1757-0.923a0.34217,0.34217,0,0,0-.454-0.3337c-0.47377.12638-.60341-0.19176-0.69661-0.54348a0.92192,0.92192,0,0,0-.22969-0.68865c-0.08549.01366-.17626,0.03373-0.26806,0.04194-0.68607.06143-.90191-0.11863-0.78679-0.74849a5.13717,5.13717,0,0,1,.2719-1.08861,30.93189,30.93189,0,0,0,1.61552-4.8902,1.33026,1.33026,0,0,0-.03756-0.99859,0.48888,0.48888,0,1,0-.97251.09786,9.29968,9.29968,0,0,0-.0224,1.40729,2.54591,2.54591,0,0,1-1.09737,2.3484c-0.22455.16342-.39929,0.40326-0.7109,0.11953-0.20879-.19008-0.33889-0.01722-0.39749.17961a2.44068,2.44068,0,0,1-.40207.94085,0.42105,0.42105,0,0,1-.71226.04707c-0.21644-.2184-0.11122-0.71645-0.51427-0.70656a1.56039,1.56039,0,0,0-.71966.57027,0.7654,0.7654,0,0,1-.07556.05559c-0.39775.23151-.64322,0.09545-0.66643-0.37266a1.4748,1.4748,0,0,0-.08537-0.94843,1.327,1.327,0,0,0-.83021.287c-0.37663.18192-.57566,0.08673-0.6608-0.33779C51.598,60.002,51.57621,60.00636,50.928,60.1135c0.12041,0.222.2426,0.43757,0.35566,0.65779a2.1903,2.1903,0,0,1,.08266,1.56337,1.02466,1.02466,0,0,1-.99249.73025c-0.3271.027-.23861,0.31222-0.21242,0.51885a1.57157,1.57157,0,0,1-.6991,1.54013,0.6358,0.6358,0,0,0-.43524.70932,0.69235,0.69235,0,0,0,.71529.5767,1.76074,1.76074,0,0,1,1.44922,1.71161,1.354,1.354,0,0,1-1.663,1.54467c-0.29634-.048-0.47266-0.05344-0.5559.281a2.63756,2.63756,0,0,0-.355.952,0.36924,0.36924,0,0,1-.28724.41352,1.08535,1.08535,0,0,1-1.3456-.33988c-0.60125-1.0298-1.29653-2.0727-.36549-3.28191a0.27452,0.27452,0,0,0,.05845-0.33949,0.31467,0.31467,0,0,0-.4158-0.09687,1.27929,1.27929,0,0,1-1.08083.009,2.22139,2.22139,0,0,1-1.257-1.75285,0.86741,0.86741,0,0,1,.44638-1.03033c0.62714-.407.62027-0.41757,0.16424-1.04021a1.28091,1.28091,0,0,1-1.99071.36655,1.53077,1.53077,0,0,1-.43579-2.33,7.2661,7.2661,0,0,1,.90967-0.97729,0.31808,0.31808,0,0,0-.47742-0.0483,1.067,1.067,0,0,1-1.37081-.023,1.51145,1.51145,0,0,1-.79322-1.19455,0.32948,0.32948,0,0,0-.36347-0.4058,1.57687,1.57687,0,0,1-1.67673-1.18351,0.22556,0.22556,0,0,0-.29772-0.15014,0.89992,0.89992,0,0,0-.667.43326c-0.42419.71483-.61448,0.69907-1.05972-0.00317-0.06559-.10343-0.12861-0.29-0.24469-0.1827a1.5707,1.5707,0,0,1-.7963.09679,0.97725,0.97725,0,0,0-.28187.66292c-0.11622.2122-.26376,0.60892-0.50023,0.39444-0.58882-.53407-0.783-0.024-1.08138.29241a2.83868,2.83868,0,0,1-.40726.38913c-0.33866.23856-.60911,0.11556-0.64522-0.29172-0.01928-.217.0218-0.43916,0.00441-0.6565a0.91469,0.91469,0,0,0-1.42489-.72534c-0.76832.46579-.80928,0.45282-1.21582-0.39449-0.08533.02779-.17359,0.05242-0.25882,0.085-0.57368.21892-.58655,0.2258-0.87891-0.37673-0.15494-.31924-0.35782-0.22894-0.61974-0.1845-0.54859.09309-.61444,0.0395-0.49805-0.51068,0.08172-.38622.00577-0.5349-0.383-0.51619-0.18749.009-.37544,0.00965-0.56281,0.02028a0.92977,0.92977,0,0,1-.72092-0.1004c-0.23923-.19963-0.02506-0.39518.00163-0.5962a0.337,0.337,0,0,0-.14053-0.21667c-0.2744-.23017-0.16548-0.4304.0329-0.631,0.33053-.33423.66447-0.66522,0.98877-1.00539,0.1273-.13352.36246-0.328,0.26425-0.46224-0.48808-.66714.15526-0.77527,0.471-1.05481,0.12571-.11131.39019-0.18936,0.23911-0.42334-0.27348-.42359.003-0.62985,0.28763-0.84353a0.38557,0.38557,0,0,0,.18492-0.30034c0.04625-.78981.05633-0.76689,0.73087-1.00641a5.46789,5.46789,0,0,0,1.75941-.62163,4.31914,4.31914,0,0,1-2.35871-.85811c-0.24233-.17781-0.65659-0.186-0.546-0.59979,0.11326-.42363-0.56778-0.51322-0.34571-0.88,0.24451-.40386.02922-0.54205-0.25648-0.72438-0.128-.0817-0.44533-0.18576-0.218-0.39029,0.35623-.32055.1179-0.41584-0.1071-0.61874-0.31789-.28666-0.25722-0.53079.1378-0.52977a4.23394,4.23394,0,0,0,1.77216-.65129,4.09278,4.09278,0,0,1,2.10914-.24273,2.405,2.405,0,0,1,1.941.9671,0.24385,0.24385,0,0,0,.37992.10636A1.00447,1.00447,0,0,0,32.682,43.7672c-0.678-.91414-1.85909-1.36671-2.20791-2.6166-0.17812-.63819-0.33831-0.59061.2914-0.86093a2.75335,2.75335,0,0,0,.33422-0.20643l-0.69788-.7864A0.67782,0.67782,0,0,1,30.77388,38.87681Zm49.9903,16.16908a5.9355,5.9355,0,0,0,.73516.761c0.39547,0.43747.6798,0.27829,0.99874-.15405-0.293-.19786-0.84406-0.31467-0.391-0.83183a0.48042,0.48042,0,0,0,.09-0.00352,0.39228,0.39228,0,0,0,.36131-0.33529,0.28913,0.28913,0,0,0-.14673-0.06908c-0.29618-.0631-0.36747.11-0.36471,0.35624A6.48083,6.48083,0,0,1,80.76419,55.04589Zm-0.928-3.269c-1.29672-.22934-1.9764.82106-3.01266,0.77888,0.01378,0.24567.15544,0.40012,0.28352,0.3312a2.96507,2.96507,0,0,1,1.08738-.19211,0.61471,0.61471,0,0,0,.35515-0.08389c0.50958-.93482,1.16064-0.23574,1.69977-0.10457,0.67118,0.1633.65193,0.24245,1.25856-.45913a1.03084,1.03084,0,0,1-1.26221-.51607,7.443,7.443,0,0,0-.86161-0.89938c-0.43733-.55327-0.43262-0.08507-0.585.1216a2.71472,2.71472,0,0,0-1.44866.10687,0.97821,0.97821,0,0,0-.65749.60831c-0.17453.37623-.03724,0.55868,0.39067,0.5288a1.38264,1.38264,0,0,0,1.43628-.91306,0.41212,0.41212,0,0,1,.27605-0.33626C79.4887,50.68325,79.33615,51.37031,79.8362,51.77691ZM41.26415,57.18025a1.16133,1.16133,0,0,0,1.42957.55187,1.0401,1.0401,0,0,0-.31378-1.98868c-0.53005.13038-.56162-0.18863-0.67931-0.49759a1.09256,1.09256,0,0,0,1.12269-1.23563,0.16573,0.16573,0,0,0-.18841-0.1522,0.2,0.2,0,0,0-.22907.22117,1.22961,1.22961,0,0,1-.70217,1.179A1.70016,1.70016,0,0,0,41.26415,57.18025ZM38.36638,44.16071c-0.30008-.1227-0.74121-0.62877-1.07352.03725-0.04641.093-.17187,0.04445-0.25274-0.00107a3.93038,3.93038,0,0,0-2.19862-.30622,0.35957,0.35957,0,0,1-.43218-0.20294c0.57216-.39925,1.22975-0.13891,2.03923-0.21846-0.9216-.88716-1.35955-2.17359-2.91463-1.766,0.04133-.57539.58089-0.28376,0.79981-0.575-0.381-.36232-0.765-0.72248-1.14251-1.08931-0.12969-.126-0.31373-0.2764-0.123-0.46135a0.33579,0.33579,0,0,1,.49208.08351q0.54538,0.516,1.08708,1.03586a26.1567,26.1567,0,0,0,2.236,2.167V41.33886l0.09791-.007a3.708,3.708,0,0,1,.33712,1.306,0.63066,0.63066,0,0,0,.58469.76127,3.59112,3.59112,0,0,1,1.2629.587,0.55559,0.55559,0,0,0,.98372-0.11487,2.95641,2.95641,0,0,0,.749-2.20237c-0.07584-.41846-0.06837-0.81622-0.62822-0.868a0.40841,0.40841,0,0,1-.302-0.3293c-0.12312-.38865-0.2027-0.80863-0.785-0.70015a0.3952,0.3952,0,0,1-.28129-0.20966c-0.2058-.40822-0.37774-0.71744-0.94712-0.40562-0.2458.1346-.45741-0.26462-0.61432-0.48742-0.30162-.42835-0.56206-0.813-1.20941-0.50653a1.00532,1.00532,0,0,1-.90506-0.3865c-0.25478-.1668-0.46423-0.30787-0.68947.06123-0.17171.28138-.39775,0.05374-0.5633-0.04523a2.20284,2.20284,0,0,0-1.373-.51214c-0.1741.22286,0.06,0.323,0.12277,0.46888a0.31612,0.31612,0,0,1-.01675.42227,0.31244,0.31244,0,0,1-.34541-0.03721c-0.086-.0374-0.16785-0.08433-0.253-0.12394-0.19225-.08945-0.40466-0.2743-0.59068-0.05626-0.14349.16824,0.03933,0.34091,0.11981,0.50155,0.29992,0.59887.29944,0.5991-.30672,0.94028a0.32766,0.32766,0,0,0,.02107.16155c0.70392,0.75326.70532,0.75364-.24669,1.144a0.262,0.262,0,0,0-.20775.251,1.01329,1.01329,0,0,1,.5752.89984,0.473,0.473,0,0,0,.2296.27979,26.26882,26.26882,0,0,1,1.95586,2.118c0.36843,0.31243.2747,0.55162-.28835,1.05469,0.37516,0.57976,1.29118.735,1.2932,1.61024-0.49029-.38607-0.97687-0.777-1.47281-1.15564a0.77861,0.77861,0,0,1-.31543-0.51616,2.62653,2.62653,0,0,0-1.98113-1.48092,0.45554,0.45554,0,0,0-.32951.14818,0.49535,0.49535,0,0,1-.676.05167c-0.2719-.15885-0.56144-0.3436-0.65933.223-0.05206.30131-.37294,0.13489-0.56013,0.083a0.38161,0.38161,0,0,0-.55971.39644,0.67563,0.67563,0,0,1-.20791.59014c-0.25439.186-.09169,0.27893,0.10731,0.372a0.633,0.633,0,0,1,.25788.25179c0.14887,0.26051-.413.38372-0.167,0.62011,0.17968,0.17259.43191,0.2458,0.34486,0.57363a0.27775,0.27775,0,0,0,.07967.23969c0.74769,0.177,1.2323.95336,2.07638,0.90719a3.47046,3.47046,0,0,1,.563.0221c0.26284,0.02868.6783-.08191,0.69383,0.277a0.73507,0.73507,0,0,1-.59923.73294c-0.63739.15325-1.26742,0.33832-1.897,0.5223-0.24614.07194-.59346,0.08835-0.35842,0.52125a0.32022,0.32022,0,0,1-.15928.39964c-0.2988.22968-.6219,0.40983-0.26333,0.88644,0.14508,0.19286-.17667.325-0.3716,0.43028-0.32593.176-.81532,0.25106-0.50993,0.8543a0.68329,0.68329,0,0,1-.31375.54346,6.60725,6.60725,0,0,0-.92543,1.08753,0.85484,0.85484,0,0,0,.82511.06942,26.74208,26.74208,0,0,0,5.66178-2.68152,0.24979,0.24979,0,0,0,.10573-0.29224,7.17185,7.17185,0,0,1-2.48757.06943c-0.33687-.06523-0.67274-0.13707-1.00621-0.21765a0.25133,0.25133,0,0,1-.20364-0.27642,0.30061,0.30061,0,0,1,.35341-0.23583,2.16142,2.16142,0,0,1,.36009.09957A7.70619,7.70619,0,0,0,33.504,51.157a2.22556,2.22556,0,0,0,1.55947-.9067c-0.61747-.17348-1.19634-0.32582-1.7683-0.50078-0.3277-.10024-0.64724-0.22983-0.96415-0.36144a0.23586,0.23586,0,0,1-.14134-0.3079,0.22673,0.22673,0,0,1,.324-0.093,5.864,5.864,0,0,0,1.30793.49527c0.05881,0.0213.1145,0.051,0.17237,0.075,0.92344,0.38346,1.75674.558,2.42682-.51182a9.70257,9.70257,0,0,0,1.035-1.35691,0.97145,0.97145,0,0,0-.95342-0.06191,10.10209,10.10209,0,0,1-5.95844-.74241c-0.27364-.10971-0.74831-0.20131-0.57809-0.58023,0.20888-.46491.53554-0.001,0.75869,0.10549a11.31059,11.31059,0,0,0,3.43315.89259c0.29505,0.03958.604,0.05081,0.48268-.41489a3.59343,3.59343,0,0,0,3.05849.19932,0.78464,0.78464,0,0,0,.46589-0.42935,5.75134,5.75134,0,0,1,.80542-1.03078l-0.00044.00711C39.46793,44.47485,39.65242,44.68655,38.36638,44.16071Zm19.929,8.81962a1.08485,1.08485,0,0,0,.69861.08519c-0.85812-1.6607-3.30043-2.34617-5.53131-1.52144,0.09206,0.41912.20185,0.83925,0.27415,1.26573a0.95794,0.95794,0,0,1-.83,1.28854,4.6462,4.6462,0,0,1-1.37983-.06557c0.12585,0.331.241,0.60205,0.33257,0.88081a0.98069,0.98069,0,0,1-.66509,1.48586c-0.45867.16784-.72365,0.301-0.47889,0.83447a0.93181,0.93181,0,0,1-.32935,1.16681c-0.1409.122-.33983,0.40613-0.22652,0.43436,0.392,0.09766.21359,0.78322,0.75621,0.66434a6.36912,6.36912,0,0,1,.83967-0.09844c0.29264-.02409.61115-0.01766,0.64658,0.359,0.03223,0.34269.197,0.31,0.44105,0.26908,0.80967-.1358.88812-0.06428,0.90928,0.77268a0.378,0.378,0,0,0,.05279.352,0.71026,0.71026,0,0,0,.58873-0.37273c0.45952-.44.53619-0.42322,0.85975,0.15641a0.5,0.5,0,0,0,.37438.43861l0.8615-1.58114c0.30089-.0792.425,0.4514,0.73755,0.2108a1.28693,1.28693,0,0,0,.73353-0.80035,5.56433,5.56433,0,0,0,.06293-1.02844,7.32814,7.32814,0,0,1,.20552-1.765,0.79671,0.79671,0,0,1,.65581-0.71331,0.844,0.844,0,0,1,.86981.432,2.50643,2.50643,0,0,1,.23181,2.25454c-0.43935,1.43235-.93885,2.84652-1.42859,4.263a2.518,2.518,0,0,0-.1891,1.16846c0.25846,0.14366.72937-.323,0.91595,0.23569a7.36807,7.36807,0,0,1,.22471.98582c0.29085,0.10706.41592-.347,0.684-0.15943a0.816,0.816,0,0,1,.318.55852c0.04122,0.24695.09065,0.493,0.12013,0.74132,0.04367,0.36828.10352,0.66045,0.61464,0.546a0.46058,0.46058,0,0,1,.43774.42079c0.10184,0.29618.18264,0.59977,0.28975,0.89388,0.05084,0.1396.13169,0.352,0.306,0.285,0.73105-.28071.8371,0.27732,1.03481,0.72835a3.42759,3.42759,0,0,0,.20849.42c0.12,0.1955.26723,0.38767,0.52008,0.18775,0.3317-.26227.536-0.0407,0.691,0.19447,0.22386,0.3396.29393,0.82426,0.90894,0.66466a0.6796,0.6796,0,0,1,.27778.45582,3.28634,3.28634,0,0,0,.65156,1.22443,0.89311,0.89311,0,0,0,.22115-0.96293c0.03269-1.01511.11071-1.07434,1.092-.6861a0.9487,0.9487,0,0,0,.18329.03375,0.3798,0.3798,0,0,0,.06768-0.16174c-0.16192-1.0213-.16323-1.0211.90563-0.94546a0.75311,0.75311,0,0,0-.1097-0.532c-0.27151-.90493-0.2721-0.90916.656-1.27859a0.33845,0.33845,0,0,0,.04-0.1698c-0.54122-1.06248-.54237-1.0619.58609-1.37847-0.32742-1.14418-.32742-1.14418.413-1.59009-0.088-.39617-0.57931-0.52328-0.65862-0.96076-0.04625-.25516-0.3064-0.4563-0.021-0.73083,0.16293-.15675-0.01082-0.25226-0.1122-0.37049-0.44149-.51481-0.43584-0.51846.1891-0.87456a1.65316,1.65316,0,0,0,.19884-0.18226c-1.722-.48227-2.74131-1.92533-4.19841-2.94695-0.105.87138,0.54489,1.3834,0.65129,2.11875a4.031,4.031,0,0,1-1.18844-1.93791,0.63375,0.63375,0,0,0-.57033-0.61573c-0.50883-.13127-1.019-0.2575-1.64516-0.41524,0.182,0.36057.293,0.639,0.45247,0.88608a16.06512,16.06512,0,0,1,1.48744,3.026,0.83452,0.83452,0,0,0,.88417.78072,0.3928,0.3928,0,0,1,.25938.09733,2.82433,2.82433,0,0,0,2.39542.502,0.24506,0.24506,0,0,1,.31968.1062c0.08264,0.215-.09573.2805-0.23348,0.32149-0.23344.06944-.478,0.10133-0.81433,0.16817a2.93908,2.93908,0,0,1,1.28378,2.32682,12.82,12.82,0,0,0-1.73186-2.05759c0.13442,0.85892.25124,1.58242,0.358,2.30738,0.0218,0.14787.04062,0.3363-.18947,0.33641-0.17632.00008-.16638-0.17489-0.16144-0.281a8.40466,8.40466,0,0,0-.595-2.54476,0.29306,0.29306,0,0,0-.28871-0.29278c-0.2996-.00612-0.68692.07051-0.47731-0.46681a0.72929,0.72929,0,0,0-.22583-0.09674,0.19367,0.19367,0,0,0-.25136.19481,2.10787,2.10787,0,0,0,.06274.368,16.04555,16.04555,0,0,0,.34539,1.74674,13.50413,13.50413,0,0,1,.30774,4.36467,0.71877,0.71877,0,0,1-.122.53105,0.30585,0.30585,0,0,1-.41082.09774,0.188,0.188,0,0,1-.04342-0.31352,0.862,0.862,0,0,0,.09036-0.87945,1.5189,1.5189,0,0,1-.03889-0.55874c0.35077-1.73777-.39467-3.31782-0.66463-4.9591-0.35943-.07862-0.36894.2155-0.44464,0.38636-0.12626.28506-.16413,0.61244-0.3078,0.886a1.373,1.373,0,0,0,.07558,1.58221,1.21014,1.21014,0,0,1,.18048.42509,0.29076,0.29076,0,0,1-.06764.251,0.21567,0.21567,0,0,1-.31141-0.08738,1.143,1.143,0,0,0-.43813-0.63607c-0.57083.37818-.37512,1.08078-0.604,1.737-0.51758-.731.04422-1.339-0.032-1.9337-0.249-.1293-0.33149.06732-0.45284,0.20131-0.08181.0903-.18809,0.18194-0.30491,0.0397a0.25421,0.25421,0,0,1,.00505-0.34266,3.2774,3.2774,0,0,1,.384-0.41039,8.07112,8.07112,0,0,0,1.95607-3.06451,0.41848,0.41848,0,0,0-.00972-0.35909,12.69031,12.69031,0,0,0-1.895-3.575,2.28615,2.28615,0,0,0-.31086,1.54116c0.28658,0.78768.17292,1.60786,0.4156,2.37714,0.01884,0.05976.04321,0.1179,0.05969,0.17825a0.57948,0.57948,0,0,1-.10258.68733,0.28413,0.28413,0,0,1-.25676-0.02088c-0.26836-.17881-0.00441-0.38747-0.02015-0.57825A3.803,3.803,0,0,0,62.51,61.18231a24.00363,24.00363,0,0,1-1.82355,2.74317c-0.06621.06641-.1156,0.15039-0.18487,0.2128-0.19588.17649-.37516,0.60695-0.64527,0.38533-0.35662-.29261.19555-0.39884,0.27431-0.62016,0.19027-.53469.784-0.82588,0.8405-1.48372a5.96168,5.96168,0,0,0-1.54589.61747,0.45656,0.45656,0,0,1,.36623-0.53236c0.4181-.27383.84491-0.53657,1.28229-0.77831a1.19879,1.19879,0,0,0,.87264-1.38567c-0.71164.1734-1.16494,0.96856-1.95926,0.83895-0.06543-.34318.178-0.32979,0.3339-0.396a5.80263,5.80263,0,0,0,1.52834-1.08231,2.64565,2.64565,0,0,0,.20093-3.08556c-0.6846-.88565-1.34115-1.79319-1.99861-2.6994a0.779,0.779,0,0,0-.6826-0.41014,0.68687,0.68687,0,0,0-.68235.54107,5.29918,5.29918,0,0,1-.52592,1.20076,0.273,0.273,0,0,1-.24226.0875,0.20073,0.20073,0,0,1-.12489-0.29465,3.69277,3.69277,0,0,0,.48574-1.0016,2.92313,2.92313,0,0,0-1.4718.89881,0.80519,0.80519,0,0,0,.04926,1.03687c0.2288,0.2963.45364,0.596,0.66847,0.90251a0.21318,0.21318,0,0,1-.03864.32715,0.24376,0.24376,0,0,1-.323-0.09388,0.896,0.896,0,0,0-.58551-0.55636,1.42493,1.42493,0,0,0,.15689.98233c0.02564,0.16936.20024,0.38153-.07147,0.465-0.23562.07238-.34169-0.12819-0.34691-0.32836a5.22454,5.22454,0,0,1-.08608-1.58009,0.7178,0.7178,0,0,0-.04289-0.2701,1.7435,1.7435,0,0,0-.97039,1.8915c0.05358,0.30719.09922,0.61637,0.13215,0.92638a1.8218,1.8218,0,0,1,.12525.93383c-0.784-.56515-0.27456-1.45824-0.6968-2.12489l-0.99436,1.76392c-0.36384-.55926.36009-0.85826,0.24187-1.33206-0.62392.12833-1.02188,0.85544-1.76435,0.5296a6.17076,6.17076,0,0,0,3.30167-2.88176c-1.02714.14439-1.55366,0.92582-2.31313,1.27792L53.252,56.81563c-0.17467-.41858.33154-0.46435,0.42194-0.79617a1.50439,1.50439,0,0,0-.72212-0.26213c-0.12939-.10225-0.25228-0.215-0.14591-0.38531,0.10113-.162.23139-0.20777,0.31922,0.025a0.33771,0.33771,0,0,0,.39485.161,0.57589,0.57589,0,0,0,.58342-0.22647,0.58559,0.58559,0,0,0-.103-0.60495,2.2353,2.2353,0,0,1-.43611-0.49208,0.87064,0.87064,0,0,1,.86033.60812,0.624,0.624,0,0,0,.87859.33082c0.95863-.2743,1.45287-1.16177,2.43571-1.43993-0.5868-.68346-1.0557-0.1744-1.53132-0.13456a3.67459,3.67459,0,0,1-1.53438.19407,3.83721,3.83721,0,0,1,1.01172-.32682,1.16484,1.16484,0,0,0,1.09027-.85718l-0.00032.00224A1.706,1.706,0,0,0,58.29543,52.98033ZM58.717,43.33871c-1.3182-.4963-2.63947-0.98443-3.95647-1.48386a1.9791,1.9791,0,0,0-1.77558.18726,4.36439,4.36439,0,0,1-2.95616.66885,4.5441,4.5441,0,0,1-1.56234-.59927c-0.34279-.20606-0.68051-0.42058-1.11412-0.68936a17.32111,17.32111,0,0,1-.20015,3.05646c1.12048-.30921,2.19649-0.63016,2.98008.52193a1.70053,1.70053,0,0,1,.23355,1.803,2.28675,2.28675,0,0,0,.9777-0.04161,1.29447,1.29447,0,0,1,1.5886,1.08628A1.95046,1.95046,0,0,1,52.17171,49.71a0.85271,0.85271,0,0,0-.33367,1.03451c0.13162,0.3854.45461,0.26232,0.71389,0.27094a2.00241,2.00241,0,0,0,.65018-0.08153,6.38107,6.38107,0,0,1,3.86081.06166,2.54815,2.54815,0,0,0,.4266.04648,5.46647,5.46647,0,0,0-.70174-1.53042,5.745,5.745,0,0,1-.86853-2.72264,2.57189,2.57189,0,0,1,1.31512-2.33227c0.56782-.31495,1.168-0.57142,1.7476-0.85118A0.3478,0.3478,0,0,0,58.717,43.33871Zm8.43291,12.224a1.41209,1.41209,0,0,1-.65494-0.88024,1.0602,1.0602,0,0,0-1.4281-.6694c-0.50968.09947-1.01993,0.196-1.56392,0.30037,0.366,0.3979.67539,0.73387,0.98422,1.07034,0.10768,0.11727.22285,0.24827,0.09605,0.40489-0.17717.2189-.34929,0.05813-0.47032-0.06665a8.16464,8.16464,0,0,1-.667-0.78357,1.65344,1.65344,0,0,0-1.51885-.54691c-0.4442.01077-.57244,0.28463-0.35881,0.67734,0.08941,0.16438.22363,0.30679,0.29834,0.47642a3.499,3.499,0,0,0,2.56609,1.87416c0.90035,0.26306,1.84039.32793,2.71482,0.66084,0.41475,0.1579.41022,0.1976-.03124,0.62316a3.572,3.572,0,0,1,1.43587,1.26771c0.44172,0.70452.64205,0.666,1.15513-.0465a0.67436,0.67436,0,0,0-.57359-0.24765c-0.16507-.0436-0.322-0.18109-0.21506-0.33281,0.37847-.53692-0.09589-0.65133-0.39614-0.80326a9.1866,9.1866,0,0,1-1.992-1.39369,1.05468,1.05468,0,0,1-.42929-0.5985,0.6956,0.6956,0,0,1,.066-0.627c0.204-.22588.41512-0.0387,0.59672,0.0437a35.56388,35.56388,0,0,0,4.22308,1.50794c0.14715,0.04551.29776,0.07978,0.55716,0.14853-0.07554-.43084-0.13389-0.85887.46584-0.83045a0.36455,0.36455,0,0,0,.26615-0.22378c-0.08351-.71784.442-0.86995,0.99964-1.00965a1.22926,1.22926,0,0,0-.78644-0.50012,0.47292,0.47292,0,0,1-.34948-0.49247,0.88245,0.88245,0,0,0-.11956-1.099c-0.16622-.16643.26558-0.36176,0.379-0.63654a1.76673,1.76673,0,0,0-1.79557.15413,4.12614,4.12614,0,0,1-1.49434.51652,0.64169,0.64169,0,0,0,.50226.40133c0.6837,0.34209,1.52158.41222,1.97961,1.16507,0.11763,0.19336.48179,0.008,0.66686,0.2238-0.52762.19579-.59475,0.17987-1.39978-0.24556-0.43765-.23128-0.88279-0.44839-1.47885-0.74993,0.248,0.51.4414,0.87426,0.60178,1.25248a0.31193,0.31193,0,0,1-.13357.47425,0.462,0.462,0,0,1-.42814-0.29627,0.13546,0.13546,0,0,1-.04583-0.07991,1.38732,1.38732,0,0,0-.72926-1.4191,2.73136,2.73136,0,0,0-1.71043-.35433c-0.17391.00771-.34734,0.0261-0.56275,0.04285C66.60258,54.5297,67.48369,54.74309,67.14986,55.56272ZM31.852,53.10812c-1.34347.97672-3.06377,1.09291-4.39617,2.1484,0.3413,0.24884.88959,0.25426,0.69517,0.86113-0.0595.18569,0.19041,0.20024,0.34231,0.16591,0.58014-.13111.7467,0.14647,0.599,0.61724,0.32439,0.22287.47188-.0465,0.67141-0.0846a0.383,0.383,0,0,1,.5284.244c0.09709,0.47.32046,0.48968,0.647,0.23713,0.35322-.2732.6678-0.57872,1.13427-0.1412,0.14124,0.1325.30185-.14451,0.45576-0.22943a0.46968,0.46968,0,0,1,.52459-0.06643,0.41551,0.41551,0,0,1,.07977.51368,2.09237,2.09237,0,0,0-.14439,1.37152,0.78158,0.78158,0,0,0,.62087-0.50447,0.63823,0.63823,0,0,1,1.08588-.0626c-0.07-.84323.98278-1.14639,0.65331-1.93616-0.344-.82453.46538-1.76391-0.33356-2.669a12.46547,12.46547,0,0,1-.91082,2.04237,0.70042,0.70042,0,0,1-.26792.37076,0.32489,0.32489,0,0,1-.25586-0.0099,0.1453,0.1453,0,0,1-.04365-0.2364c0.72685-.84791.75331-2.02687,1.41613-2.92487a5.66739,5.66739,0,0,0,.56814-2.15633,11.51233,11.51233,0,0,0-2.17765,1.68561,1.04849,1.04849,0,0,1-.35936.265,1.6776,1.6776,0,0,0-.82823,1.89661,1.80894,1.80894,0,0,1-.23075,1.22808A4.76325,4.76325,0,0,1,31.852,53.10812Zm34.1187-4.70024a0.2581,0.2581,0,0,0,.07071-0.24215c-0.72064-.54472-0.01808-0.90956.18159-1.397-0.48457-.169-0.61361-0.45483-0.21154-0.8681,0.20548-.2112.375-0.4399,0.0221-0.69727-0.23642-.1724-0.10623-0.38229-0.00613-0.58419a3.01277,3.01277,0,0,0,.32931-0.98521c-0.21.15753-.42336,0.3107-0.62925,0.47341-0.68329.54-.74015,0.52212-1.0361-0.37526a1.57315,1.57315,0,0,0-.64058.62669c-0.37457.41228-.58586,0.38068-0.76253-0.13757-0.03988-.117-0.0292-0.25134-0.07014-0.36771a1.31263,1.31263,0,0,0-.20263-0.26988,1.0593,1.0593,0,0,0-.03947,1.40451,2.0813,2.0813,0,0,1,.10122,1.09722,1.16627,1.16627,0,0,0,.33765.98351,4.20562,4.20562,0,0,0,.70658-0.93825,3.50857,3.50857,0,0,1,.449-0.47839,0.31969,0.31969,0,0,1,.4964.00132c0.10669,0.14959-.03945.28432-0.1508,0.39437-0.78362.77456-1.22134,1.8-2.0705,2.65534a3.25158,3.25158,0,0,0,1.47646-.26556,3.83155,3.83155,0,0,1,.5533-0.09081,0.27179,0.27179,0,0,1,.20936.13748,0.19373,0.19373,0,0,1-.17354.27056c-0.53812.03-1.03971,0.23142-1.56553,0.30964a1.47239,1.47239,0,0,0-1.16448.806c-0.35306.61842-.86292,1.14838-1.2252,1.91166a6.904,6.904,0,0,0,1.50084-.72676c0.50248-.28125.80333-0.77349,1.41432-1.207-0.1882.90941-1.00669,1.0413-1.32952,1.585-0.02412.0806,0.01353,0.10086,0.0933,0.12517,0.21653,0.066.61694-.12858,0.62193,0.21243,0.00662,0.45272-.411.21822-0.65439,0.24634-0.46665.05391-.93426,0.10044-1.40207,0.14316a1.531,1.531,0,0,0-.84248.37481c-0.45445.37221-.46143,0.43129-0.0933,0.87393a3.58581,3.58581,0,0,1,.354.43643,0.54219,0.54219,0,0,0,.83306.27478,5.76878,5.76878,0,0,1,1.00936-.1709,1.17337,1.17337,0,0,0,.94391-0.31007,2.58878,2.58878,0,0,0,.52553-1.45933,1.11567,1.11567,0,0,1,.36035-0.996,10.22815,10.22815,0,0,1,1.9934-1.6934C65.64491,49.01281,65.64045,49.01036,65.9707,48.40788ZM41.43648,50.87753a0.74663,0.74663,0,0,0-.46228-0.4037c-0.42318-.461-0.757-1.08138-1.55393-0.44378a1.34258,1.34258,0,0,1-1.3162-.68381c-0.17325-.32694-0.29868-0.67922-0.44794-1.0263a1.17585,1.17585,0,0,0-.39782.48229c-1.10286.70922-1.10684,1.98694-1.57936,3.02047a0.51574,0.51574,0,0,0,.28485.8192,1.83986,1.83986,0,0,1,.62919.8011,7.35858,7.35858,0,0,0,.6644.99637c-0.8714-.006-0.90657-1.03127-1.64622-1.33815a8.95458,8.95458,0,0,0,.25014,2.5175A2.90835,2.90835,0,0,0,36.90777,57.68a4.5121,4.5121,0,0,1,1.83095-1.61467,0.33685,0.33685,0,0,0,.15087-0.10029c0.19836-.81834.65009-0.58919,1.14038-0.29577a1.40814,1.40814,0,0,0,.45353.116,0.21978,0.21978,0,0,0,.28986-0.15815A0.20044,0.20044,0,0,0,40.571,55.376c-0.97816-.194-1.60291-0.64161-1.38422-1.78408a0.75563,0.75563,0,0,0-.4388-0.571,1.39033,1.39033,0,0,1-.32784-1.7791,1.11864,1.11864,0,0,1,1.01767-.82346,0.99248,0.99248,0,0,1,1.09868.68717,0.58963,0.58963,0,0,0,.32485.45845A1.77657,1.77657,0,0,0,41.43648,50.87753ZM59.7916,45.883c-0.11836.35016-.28646,0.5658-0.67433,0.27131-0.31835-.2417-0.40027-0.00957-0.51664.24724a6.23313,6.23313,0,0,0-.23091,3.8546,3.66114,3.66114,0,0,0,.79848,2.03c0.17612,0.17788.33847,0.41751,0.62576,0.21232a0.632,0.632,0,0,0,.34341-0.777,3.52677,3.52677,0,0,0-.96019-1.58637,0.37754,0.37754,0,0,1-.18023-0.55542A8.061,8.061,0,0,1,60.5717,51.519a1.06,1.06,0,0,0,.35982-1.248,3.324,3.324,0,0,0-1.313-2.18038A0.25885,0.25885,0,0,1,59.54707,47.85c0.0584-.14224.188-0.1232,0.31123-0.0638a0.92176,0.92176,0,0,0,.6202.28687,2.2521,2.2521,0,0,0-.13162-1.06318c-0.07832-.18279-0.14039-0.38252.09541-0.47209,0.24424-.09277.33629,0.09907,0.36234,0.29723a7.90971,7.90971,0,0,1,.42272,2.54274,0.58012,0.58012,0,0,0,.3013.68913,11.8491,11.8491,0,0,1,1.45744-2.22334,0.26083,0.26083,0,0,0,.05309-0.34c-0.58641-.56685-0.335-1.29594-0.38141-1.95906-0.02892-.41367-0.07685-0.67307-0.58813-0.532a3.16107,3.16107,0,0,1-.787-0.29081c-0.06522.16355-.12957,0.33562-0.2018,0.50432-0.31109.7263-.34815,0.73336-1.13617,0.15094C59.88033,45.59087,59.84044,45.73846,59.7916,45.883Zm6.21749,7.48765c0.634-.94365,1.9151-1.10877,2.51564-2.09082,0.084-.13741.16762-0.29815,0.34238-0.16616a0.34172,0.34172,0,0,1,.01682.43212,1.26173,1.26173,0,0,1-.482.43067c-0.49672.41912-.99946,0.83113-1.6081,1.33562,0.72218,0.07177,1.28769.35838,1.86447-.14175a1.83614,1.83614,0,0,1,.81778-0.14067,2.578,2.578,0,0,0,1.05423-.36327,0.45875,0.45875,0,0,0,.2126-0.70011,3.49291,3.49291,0,0,0-.47372-1.17133,3.34841,3.34841,0,0,0-1.16995-.07517c-0.729-.26086-1.2564.25452-1.89011,0.3083a2.76514,2.76514,0,0,0-1.735.83423,1.2032,1.2032,0,0,1-.47466.29118,1.42709,1.42709,0,0,0-.95983,1.50818C64.77326,53.70963,65.34384,53.20331,66.00909,53.37067ZM23.54292,46.71646a0.35957,0.35957,0,0,1-.0065-0.34836,0.95312,0.95312,0,0,0,.11478-1.12177c-0.13745-.404.10164-0.49207,0.40988-0.55008,0.77558-.14595.77555-0.14734,0.56059-0.83686a4.78483,4.78483,0,0,0-.67771-1.43433,1.00326,1.00326,0,0,0-1.582-.36693,0.82067,0.82067,0,0,0-.46867.4765,7.39794,7.39794,0,0,1,1.58187.77959,3.26493,3.26493,0,0,1,.38932.25365,0.291,0.291,0,0,1,.059.34679,0.26789,0.26789,0,0,1-.39676.10957,3.79037,3.79037,0,0,1-.44445-0.3343,4.6086,4.6086,0,0,0-2.01885-.77241c0.34034,0.5178.58044,0.92407,0.86079,1.30036a10.0986,10.0986,0,0,1,.95613,2.02877c0.08124,0.18144.08087,0.39813-.1636,0.44742-0.26636.05372-.27114-0.1813-0.306-0.36156a4.67951,4.67951,0,0,0-1.009-1.89656,1.24648,1.24648,0,0,0,.02743,1.33678,6.15865,6.15865,0,0,1,.59767,1.67176c0.11354,0.35006.17876,0.6772,0.67068,0.54162a1.6107,1.6107,0,0,1,.70082.18088A1.00235,1.00235,0,0,0,23.54292,46.71646Zm16.7399-6.76729a0.32494,0.32494,0,0,0,.288.32784c0.716-.061.64366,0.50539,0.77473,0.92033a1.99655,1.99655,0,0,0,.25308.875,20.22715,20.22715,0,0,1,2.71494-2.307,3.35354,3.35354,0,0,0,.43735-0.489c0.19592-.26376.147-0.48841-0.193-0.5465-1.23225-.21049-2.46622-0.41227-3.70314-0.59269a3.557,3.557,0,0,0-1.824,1.08088C39.89164,39.00906,40.23016,39.28752,40.28282,39.94918Zm1.805,3.08455a0.36367,0.36367,0,0,0,.40094.056,0.98212,0.98212,0,0,1,1.47426.16628,0.78782,0.78782,0,0,0,.63431.06112,1.2061,1.2061,0,0,1,1.55873.94069,1.30258,1.30258,0,0,0,.13828.22505,0.168,0.168,0,0,0,.08608.00205,8.73371,8.73371,0,0,0-.7829-4.67173A8.72292,8.72292,0,0,0,42.08785,43.03372ZM75.89969,54.28894a2.40779,2.40779,0,0,1-.26284,1.171c-0.29758-.35787-0.29758-0.35787.04707-2.11568a0.57384,0.57384,0,0,0-.56217.385,5.40519,5.40519,0,0,0-.02438,3.04548,0.15935,0.15935,0,0,0,.1639.16964,5.40158,5.40158,0,0,1,1.69669.22518,0.89616,0.89616,0,0,0,.71279-0.481,2.54278,2.54278,0,0,0,.56192-2.35458,0.47941,0.47941,0,0,0-.43143-0.43247c-0.26216.00607-.1681,0.2908-0.27458,0.424a1.37142,1.37142,0,0,0-.27029,1.05626,3.08929,3.08929,0,0,1-.05188.74651,0.79587,0.79587,0,0,1-.437.67665c-0.22572.10225-.25485,0.0864-0.805-0.364,0.1633-.31485.6384,0.05179,0.76749-0.3418a1.97416,1.97416,0,0,0,.06743-0.833,1.77121,1.77121,0,0,1,.61646-1.48211C76.35513,52.95732,76.10827,53.043,75.89969,54.28894ZM46.65947,39.13759c1.83913,2.813,3.67442,3.62992,6.37,2.00035C50.981,40.32574,48.81587,40.00977,46.65947,39.13759ZM41.22429,47.385a1.86751,1.86751,0,0,1-.75044-1.42876,1.00567,1.00567,0,0,1,.39455-0.71263c1.03642-.89423,1.20532-0.88418,2.28691.16908a0.18653,0.18653,0,0,0,.08944-0.29676,0.61574,0.61574,0,0,1,.00342-0.90632c0.24895-.3753.08909-0.62525-0.369-0.61656a2.84709,2.84709,0,0,0-1.24316.39174,0.99047,0.99047,0,0,1-.4703.28318c-1.13944-.04729-1.5477.79888-1.99848,1.60815-0.13534.243-.32862,0.45321-0.4864,0.68455a1.30482,1.30482,0,0,0-.35768.69691c0.45711,0.08539.86219-.31418,1.32091-0.14653a2.15379,2.15379,0,0,1,.80988.93264C40.87058,47.95478,40.82436,47.48776,41.22429,47.385Zm19.45227-2.58868c0.16874-.63345-0.00749-0.85106-0.58972-0.67068-0.68081.21092-1.34294,0.48138-2.01766,0.71289A2.1326,2.1326,0,0,0,56.83651,47.935c0.26367,0.40432.36193,0.9122,0.6673,1.36946a0.53235,0.53235,0,0,0,.17632-0.60123,4.93562,4.93562,0,0,1,.61241-2.693,0.68836,0.68836,0,0,1,.76014-0.55071,0.29345,0.29345,0,0,0,.30716-0.12339c0.52948-.56938.53449-0.56472,1.19857-0.2185C60.61338,44.96975,60.65289,44.88514,60.67655,44.79632ZM19.78591,47.51614c-0.14019.06908-.29855,0.17451-0.40377-0.00695a0.26016,0.26016,0,0,1,.15546-0.37858c0.41553-.13241.46416-0.67181,0.90271-0.77432a0.374,0.374,0,0,0,.20676-0.384c0.06759-.34669-0.07972-0.50478-0.39-0.39466a11.367,11.367,0,0,1-1.23744.643,0.45685,0.45685,0,0,0-.12155.33185,1.49086,1.49086,0,0,1,.023,1.13937,0.7694,0.7694,0,0,0,.21391.14317c0.16677,0.04185.33032,0.12062,0.28573,0.29712-0.14747.58346,0.25979,1.19433-.10017,1.76243a0.102,0.102,0,0,0,.0706.14911,6.13115,6.13115,0,0,0,1.07862-2.94646A1.43638,1.43638,0,0,0,19.78591,47.51614Zm29.30356,0.53811c-0.19578-.15517-0.393-0.35893-0.61726-0.03311a0.43816,0.43816,0,0,1-.30261.19829,0.60816,0.60816,0,0,0-.65466.24073,1.50526,1.50526,0,0,0,.03012.9223,1.364,1.364,0,0,0,1.28927.90364c0.44542-.04043.61745-0.36993,0.57467-1.07041A1.518,1.518,0,0,0,49.08947,48.05424ZM21.345,48.9985c0.093,0.15549.23335,0.38489,0.04852,0.503-0.26443.16906-.3595-0.11126-0.46472-0.29361a0.21911,0.21911,0,0,0-.25915-0.16872c-0.1293.693-1.13872,0.97652-.92566,1.983a3.72822,3.72822,0,0,0,.88638-0.80691,0.75467,0.75467,0,0,1,.72244-0.33351c0.56725,0.20142.6344-.14538,0.66928-0.54977a0.97192,0.97192,0,0,0-.24024-1.1335A1.4771,1.4771,0,0,1,21.67978,47.48a1.98244,1.98244,0,0,0-.47972-1.0049A2.786,2.786,0,0,0,21.345,48.9985Zm24.642,3.935a1.40212,1.40212,0,0,0-1.31376-1.27177,1.07718,1.07718,0,0,0-.76751.9468,1.26623,1.26623,0,0,0,1.246,1.25939C45.8,53.88337,45.97458,53.68806,45.987,52.93346Zm2.729-5.968a1.65366,1.65366,0,0,0,1.20036-.58994,0.55108,0.55108,0,0,0,.12633-0.33674,1.05185,1.05185,0,0,0-.51767-0.93543,3.17408,3.17408,0,0,0-1.39787-.097c-0.29751.04645-.214,0.46928-0.2633,0.73634A1.41827,1.41827,0,0,0,48.716,46.96546Zm-5.45685,5.75783a0.8933,0.8933,0,0,0-.32373-0.91407c-0.21322-.18469-0.48291-0.22966-0.31166-0.62724,0.09642-.22386-0.15347-0.29931-0.35685-0.26259a1.14419,1.14419,0,0,0-.6957,1.87773,1.73869,1.73869,0,0,0,.94551.58352A1.089,1.089,0,0,0,43.25918,52.72329Zm9.94351-.18222a3.37354,3.37354,0,0,0-.111-0.45045,0.73643,0.73643,0,0,0-1.29-.31716,2.48526,2.48526,0,0,1-.28676.35554c-0.26576.17668-.55358,0.32742-0.42113,0.71748a0.9327,0.9327,0,0,0,.80684.67247c0.15344,0.02.30707,0.03856,0.40491,0.0508C53.14836,53.57439,53.35694,53.32047,53.20269,52.54107Zm-3.30008,7.83154a1.48651,1.48651,0,0,0-1.05854.73971,0.86909,0.86909,0,0,0,.36924.90071,2.47765,2.47765,0,0,0,.50329.24762c0.80955,0.34133,1.25952.02776,1.23257-.855A1.19411,1.19411,0,0,0,49.90261,60.37261Zm-0.70709-8.09792a1.07374,1.07374,0,0,0-1.13222-.99522,1.18957,1.18957,0,0,0-.98365.82662,1.27706,1.27706,0,0,0,1.10566,1.188A1.04768,1.04768,0,0,0,49.19552,52.27469Zm2.18234,3.01549a1.72831,1.72831,0,0,0-.90223-1.40666,1.82735,1.82735,0,0,0-1.12641,1.09492A1.1672,1.1672,0,0,0,50.4931,55.988C51.12128,55.97742,51.40868,55.75074,51.37785,55.29018Zm-4.15752,6.63028a1.154,1.154,0,0,0,.94269-0.98872,1.277,1.277,0,0,0-1.13238-1.05,1.06922,1.06922,0,0,0-.89226,1.10983A1.08122,1.08122,0,0,0,47.22034,61.92046Zm1.22678,4.04879a0.90551,0.90551,0,0,0-.89835-0.78218,1.07332,1.07332,0,0,0-.84939,1.08549,1.08747,1.08747,0,0,0,.24.60049,0.82946,0.82946,0,0,0,1.57144-.521C48.48856,66.21554,48.47581,66.09051,48.44712,65.96926Zm-3.273-18.35653a1.07172,1.07172,0,0,0-1.10589-.90924,1.29136,1.29136,0,0,0-1.06006,1.09388,0.925,0.925,0,0,0,.93642.72793A1.18877,1.18877,0,0,0,45.17412,47.61272Zm-1.292,9.76156a1.49116,1.49116,0,0,0,1.29354,1.3622,0.7636,0.7636,0,0,0,.67114-0.92913,0.999,0.999,0,0,0-1.15051-1.01484C44.04544,56.79146,43.86438,56.92086,43.88209,57.37428Zm0.78047,3.89087a0.77384,0.77384,0,0,0,.79793-0.51086,0.9318,0.9318,0,0,0-.23231-1.02033,0.66338,0.66338,0,0,0-.89056-0.25415,0.33778,0.33778,0,0,1-.30714.1306c-0.53378-.1526-0.53527-0.14737-0.52006.39313A1.11471,1.11471,0,0,0,44.66256,61.26516Zm3.98124,3.40875a1.19275,1.19275,0,0,0,.90643-1.15441,1.68009,1.68009,0,0,0-1.13679-.96347,0.85244,0.85244,0,0,0-.72784.92863A1.12436,1.12436,0,0,0,48.6438,64.67391ZM44.68457,49.94365a1.45527,1.45527,0,0,0,1.16482,1.28144,0.97157,0.97157,0,0,0,.92562-0.97761,1.10293,1.10293,0,0,0-1.02039-.932A3.106,3.106,0,0,0,44.68457,49.94365Zm-4.95519,6.37377a1.07305,1.07305,0,0,0-.82819,1.17194,1.05813,1.05813,0,0,0,1.08032.80263,0.69838,0.69838,0,0,0,.70709-0.87375A0.93791,0.93791,0,0,0,39.72938,56.31742Zm1.23531,2.76624a1.13959,1.13959,0,0,0,.91813,1.02283,1.1146,1.1146,0,0,0,1.08641-1.06135c0.01006-.527-0.2863-0.74573-1.0392-0.76713A0.89245,0.89245,0,0,0,40.96468,59.08366Zm0.86359-8.88821a0.68431,0.68431,0,0,0,.72538-0.77261,1.48757,1.48757,0,0,0-.85667-1.31361,0.92561,0.92561,0,0,0-.84668,1.03695A1.06551,1.06551,0,0,0,41.82827,50.19545Zm8.5305-2.12919a0.5404,0.5404,0,0,0-.03991.81994,0.71414,0.71414,0,0,0,.78817.366,2.11306,2.11306,0,0,0,.54441-0.12623,0.97529,0.97529,0,0,0,.63288-0.75279,0.82316,0.82316,0,0,0-.58944-0.65468c-0.28313-.19229-0.67272-0.06748-1.0157-0.29541A4.55,4.55,0,0,1,50.35877,48.06626Zm-8.626,6.42708a0.43817,0.43817,0,0,0,.0638-0.5978,1.32764,1.32764,0,0,0-.96541-0.62252,0.8481,0.8481,0,0,0-.35492.09945,1.06706,1.06706,0,0,0-.84728.86766,1.16608,1.16608,0,0,0,1.06165.699A1.47346,1.47346,0,0,0,41.73279,54.49334Zm6.62413,2.59885a1.32274,1.32274,0,0,0,1.08193,1.00239,0.7708,0.7708,0,0,0,.83253-0.70038,1.45743,1.45743,0,0,0-.862-1.2065A1.23522,1.23522,0,0,0,48.35692,57.09219ZM49.4812,67.54173c-0.46534-.09121-0.51563.25374-0.60332,0.53245a0.84817,0.84817,0,0,0,.6619,1.05094,0.63039,0.63039,0,0,0,.873-0.44275,1.23479,1.23479,0,0,0-.17419-1.4581,0.39135,0.39135,0,0,0-.34755-0.161C49.66983,67.1289,49.83233,67.61056,49.4812,67.54173ZM43.367,61.514a0.87123,0.87123,0,0,0-.91252.47374,0.58079,0.58079,0,0,0-.05224.83522c0.053,0.07723.10336,0.15676,0.16183,0.2297a0.84714,0.84714,0,0,0,.95569.4204c0.33411-.104.42-0.32014,0.399-0.93642C43.90915,62.10339,43.982,61.66065,43.367,61.514Zm37.91153-7.01352a0.486,0.486,0,0,0,.48882-0.54655c-0.01845-.37964-0.28246-0.2381-0.46065-0.28935a0.4496,0.4496,0,0,1-.17963-0.03694c-0.59509-.71958-1.17675-0.21031-1.76076.01365-0.11191.04292-.22133,0.09228-0.45514,0.19036A2.65576,2.65576,0,0,0,81.27857,54.50053Zm-34.48266-8.5036c-0.69193-.00048-1.069.25643-1.04471,0.71171a1.17179,1.17179,0,0,0,1.039,1.13091,0.7874,0.7874,0,0,0,.66852-0.94253C47.45531,46.306,47.22794,45.99722,46.79592,45.99693Zm0.5772,8.17331a1.25911,1.25911,0,0,0-.85644.88236,1.38875,1.38875,0,0,0,1.03493,1.06467,0.68249,0.68249,0,0,0,.7008-0.79356A1.15987,1.15987,0,0,0,47.37311,54.17024Zm-2.19536,8.99691a0.594,0.594,0,0,0,.55953.71,0.39572,0.39572,0,0,1,.35681.25131c0.10993,0.29548.30746,0.25136,0.52215,0.161a0.50963,0.50963,0,0,0,.40907-0.45129,1.83785,1.83785,0,0,0-.62392-1.29954,0.35721,0.35721,0,0,0-.32356-0.08259A1.04,1.04,0,0,0,45.17775,63.16714Zm1.35677-6.62165c-0.41291-.11535-0.60313.18678-0.41436,0.59451a2.5364,2.5364,0,0,1,.2398.69414,0.65664,0.65664,0,0,0,.645.43857,0.46568,0.46568,0,0,0,.50543-0.32118,1.34527,1.34527,0,0,0,.279-1.23971A4.68358,4.68358,0,0,1,46.53452,56.54549Zm-3.55767-6.42817a0.77889,0.77889,0,0,0,.58884.90423,0.73368,0.73368,0,0,0,.7336-0.7885,6.86441,6.86441,0,0,1,.06534-1.18143,3.6261,3.6261,0,0,1-1.1759-.3135C43.098,49.3211,43.02583,49.71779,42.97685,50.11732Zm1.99606,5.21107a1.21787,1.21787,0,0,0-.45893-0.8876,0.82109,0.82109,0,0,0-1.29522.13542c-0.23858.39837-.09626,0.75646,0.45286,1.03955a5.40148,5.40148,0,0,0,.72956.26448A0.50736,0.50736,0,0,0,44.97291,55.3284Zm-5.37481-2.4177a0.8065,0.8065,0,0,0,.81711-0.61956,1.42929,1.42929,0,0,0-.90453-1.26135,0.98281,0.98281,0,0,0-.762.93057A1.00572,1.00572,0,0,0,39.5981,52.91069Zm-0.261-5.1403c-0.723.01747-1.07727,0.25525-1.07283,0.72009A0.96751,0.96751,0,0,0,39.21,49.52807a0.75007,0.75007,0,0,0,.647-0.94214C39.84216,48.00344,39.68821,47.76191,39.33712,47.77039Zm19.636-5.19469a3.95151,3.95151,0,0,0-4.07191-1.59851ZM45.78431,65.3984c-0.26119-.58328-0.26082-0.556-1.031-0.24874-0.52849.21087-.24467,0.52907-0.167,0.81811a1.13005,1.13005,0,0,0,.50965.64119,0.60471,0.60471,0,0,0,.69464.07236,0.723,0.723,0,0,0,.22273-0.65009C45.9522,65.85995,45.8844,65.62195,45.78431,65.3984Zm35.8643-16.77584a1.36369,1.36369,0,0,0,1.41772.77431,1.4503,1.4503,0,0,0,.77011-1.47009A17.25374,17.25374,0,0,0,81.64861,48.62256ZM50.69911,50.035a0.86892,0.86892,0,0,0-.88615.62281,0.84528,0.84528,0,0,0,.835,1.07961c0.50561,0.01216.63-.1402,0.635-0.77779C51.28885,50.2098,51.16748,50.01756,50.69911,50.035ZM48.93357,59.6871a0.76567,0.76567,0,0,0,.62544-0.62176,0.61489,0.61489,0,0,0-.51383-0.58392c-0.16989-.0772-0.349-0.1338-0.52038-0.208-0.54133-.23446-0.70989-0.13184-0.72014.44384A0.86923,0.86923,0,0,0,48.93357,59.6871ZM18.9925,44.67641a3.28345,3.28345,0,0,1,1.251-.95481,0.39867,0.39867,0,0,0,.27415-0.58553c-0.11411-.27575-0.35412-0.19774-0.56332-0.14913a3.66234,3.66234,0,0,0-.71587.20643,0.61691,0.61691,0,0,0-.50154.68571,7.25594,7.25594,0,0,1-.26381.93309A0.36175,0.36175,0,0,0,18.9925,44.67641ZM44.51592,45.9877a0.73227,0.73227,0,0,0,.72767-0.79392,0.905,0.905,0,0,0-.97628-0.78261,0.70085,0.70085,0,0,0-.53366.8472A0.70844,0.70844,0,0,0,44.51592,45.9877Zm-3.01654-8.69107a16.62236,16.62236,0,0,0,2.84426.42666C43.41166,36.57779,42.56943,36.45271,41.49938,37.29663ZM80.21215,56.7274c-0.27222-.8691-0.23031-1.88242-1.44515-2.22819C79.01371,56.50055,79.09428,56.6249,80.21215,56.7274ZM19.89069,42.32064a1.52666,1.52666,0,0,0-2.30927.30054C18.44554,43.25853,19.14,42.64234,19.89069,42.32064Zm21.74308,4.42577a0.8228,0.8228,0,0,0,1.05942-.464,0.87138,0.87138,0,0,0-.47758-0.80492,0.28471,0.28471,0,0,0-.40356.08631c-0.21887.21232-.42968,0.43295-0.66259,0.66917A0.98861,0.98861,0,0,0,41.63378,46.74641ZM47.484,69.6109c0.01406,0.25689-.1743.61862,0.23992,0.69464,0.48477,0.089.50554-.35721,0.62985-0.65762a0.38424,0.38424,0,0,0,.02555-0.273c-0.14984-.30939-0.032-0.86535-0.54747-0.85157-0.52608.01407-.30247,0.50282-0.34952,0.80711a1.2371,1.2371,0,0,0-.00138.18694h0.00283C47.48373,69.54854,47.48226,69.57981,47.484,69.6109ZM77.69331,48.60543a7.94014,7.94014,0,0,0,2.29518-.25992A1.40069,1.40069,0,0,0,77.69331,48.60543Zm-30.90778-.25959a1.11078,1.11078,0,0,0-1.50851.29478,2.90551,2.90551,0,0,1,1.73839.79325C47.02758,48.94184,47.23823,48.59256,46.78553,48.34584Zm1.46328,5.66232a2.56556,2.56556,0,0,1,.47937,2.03271c0.483-.1027.39924-0.35243,0.34376-0.63335A1.31309,1.31309,0,0,1,49.46,53.89194,0.9549,0.9549,0,0,0,48.24881,54.00816ZM50.71,53.14553a0.40931,0.40931,0,0,0-.0229-0.46763,0.75,0.75,0,0,0-.82518-0.62258c-0.48558.07443-.22,0.54759-0.34541,1.0018A3.14245,3.14245,0,0,1,50.71,53.14553Zm-4.36228,5.43671a0.94629,0.94629,0,0,0-.53469.85445c0.0351,0.13247.20047,0.24946,0.26294,0.18a1.39289,1.39289,0,0,1,1.46716-.22149A1.60187,1.60187,0,0,0,46.34767,58.58223Zm0.91576-5.05838c0.08013-.06691.08861-0.121,0.04112-0.17511a2.07582,2.07582,0,0,1-.64451-1.5052,0.18444,0.18444,0,0,0-.246-0.19687,0.19728,0.19728,0,0,0-.117.29787,4.87765,4.87765,0,0,1,.24283,1.64581A1.11361,1.11361,0,0,0,47.26343,53.52385Zm-1.30322,1.1097c-0.00462-.25391-0.19831-0.275-0.396-0.25616-0.20867.0199-.245,0.15247-0.18811,0.32366a1.59752,1.59752,0,0,1,.09975,1.3364,0.20865,0.20865,0,0,0,.18322.26941,0.266,0.266,0,0,0,.3527-0.2046,4.443,4.443,0,0,0-.096-0.77536C45.9301,55.1258,45.9647,54.87932,45.96022,54.63355Zm31.86225-1.60332a0.32638,0.32638,0,0,0,.24433.41436,3.72147,3.72147,0,0,0,1.869-.62027A11.44561,11.44561,0,0,0,77.82247,53.03023Zm-57.202-8.33182a0.22784,0.22784,0,0,0,.03818-0.333,0.25458,0.25458,0,0,0-.34015-0.05391A6.04238,6.04238,0,0,0,18.891,45.45693,4.555,4.555,0,0,0,20.62046,44.69841ZM80.72258,56.59977a5.50263,5.50263,0,0,1,.11655.65083A2.43015,2.43015,0,0,0,81.5753,56.593l-0.93662-.83483A1.10491,1.10491,0,0,0,80.72258,56.59977ZM27.5744,38.53432a3.86826,3.86826,0,0,0-1.984.19107A3.16543,3.16543,0,0,0,27.5744,38.53432ZM47.41265,50.16059a0.28677,0.28677,0,0,0-.16066.38482c0.10327,0.55993.43965,0.19885,0.82929,0.19242A1.41763,1.41763,0,0,0,47.41265,50.16059ZM37.86312,38.41431a2.57964,2.57964,0,0,1,.6123-0.18783c0.20086,0.02567.54083,0.3314,0.57648-.07935,0.02-.23023-0.35564-0.0864-0.55459-0.08731-0.24931-.00113-0.499.00676-0.74787,0.02184-0.12257.00743-.12335,0.10485-0.10892,0.1996A0.21321,0.21321,0,0,0,37.86312,38.41431ZM70.6965,47.8a1.06552,1.06552,0,0,0-.83841-0.40153A1.11228,1.11228,0,0,0,70.6965,47.8ZM44.85919,62.31633c0.02867-.12791.146-0.29976-0.09024-0.36233a0.2276,0.2276,0,0,0-.17233.02386,0.24783,0.24783,0,0,0-.03.3247c0.03042,0.08281.07269,0.16128,0.11025,0.24294C44.8691,62.56446,44.839,62.40632,44.85919,62.31633Zm4.4494-14.661a0.3271,0.3271,0,0,0,.35655.21854A0.18224,0.18224,0,0,0,49.73,47.7263a0.23821,0.23821,0,0,0-.29361-0.25568C49.3459,47.49918,49.26632,47.54356,49.30859,47.65531ZM50.28588,49.511a0.24033,0.24033,0,0,0-.22829-0.227,0.14354,0.14354,0,0,0-.12987.18178,0.23561,0.23561,0,0,0,.2276.22482A0.1437,0.1437,0,0,0,50.28588,49.511Z"/><path d="M56.77483,52.61131a4.22132,4.22132,0,0,1-1.41992-.65318c0.6829,0.9617.74132,0.98413,1.42025,0.651Z"/><path d="M53.252,56.81563a0.91708,0.91708,0,0,0-.924.19811c0.392,0.04683.619-.2611,0.91822-0.209Z"/><path d="M38.96972,45.63364a2.6196,2.6196,0,0,0-1.215-.23123,5.06291,5.06291,0,0,1-1.67289-.33041,2.85573,2.85573,0,0,0,2.88713.55661Z"/><path d="M36.85369,40.8616a1.05944,1.05944,0,0,0-.329-1.17509,0.276,0.276,0,0,0-.24166-0.05946,0.18209,0.18209,0,0,0-.045.30542A5.065,5.065,0,0,1,36.85369,40.8616Z"/></g><text x="0" y="115" fill="#000000" font-size="5px" font-weight="bold" font-family="'Helvetica Neue', Helvetica, Arial-Unicode, Arial, Sans-serif">Created by Olga</text><text x="0" y="120" fill="#000000" font-size="5px" font-weight="bold" font-family="'Helvetica Neue', Helvetica, Arial-Unicode, Arial, Sans-serif">from the Noun Project</text></svg>